<?xml version="1.0" standalone="no"?><!DOCTYPE svg PUBLIC "-//W3C//DTD SVG 1.1//EN" "http://www.w3.org/Graphics/SVG/1.1/DTD/svg11.dtd"><svg t="1494224082825" class="icon" style="" viewBox="0 0 1024 1024" version="1.1" xmlns="http://www.w3.org/2000/svg" p-id="3312" xmlns:xlink="http://www.w3.org/1999/xlink" width="48" height="48"><defs><style type="text/css"></style></defs><path d="M872.96 855.04c-5.12 5.12-10.24 5.12-15.36 5.12-5.12 0-10.24-2.56-15.36-5.12L640 652.8c-53.76 46.08-120.32 71.68-194.56 71.68-163.84 0-299.52-133.12-299.52-299.52S279.04 128 445.44 128s299.52 133.12 299.52 299.52c0 71.68-25.6 140.8-74.24 197.12l202.24 202.24C880.64 832 880.64 844.8 872.96 855.04L872.96 855.04zM698.88 427.52c0-140.8-115.2-256-258.56-256s-258.56 115.2-258.56 256 115.2 256 258.56 256c69.12 0 133.12-25.6 181.76-74.24C673.28 558.08 698.88 494.08 698.88 427.52L698.88 427.52zM437.76 261.12c-87.04 12.8-148.48 87.04-148.48 176.64 0 7.68 0 15.36 2.56 25.6 2.56 10.24-5.12 17.92-15.36 20.48l-2.56 0c-7.68 0-15.36-7.68-17.92-15.36-2.56-10.24-2.56-20.48-2.56-30.72 0-104.96 74.24-194.56 181.76-212.48 10.24-2.56 17.92 5.12 20.48 15.36C453.12 250.88 448 261.12 437.76 261.12L437.76 261.12z" p-id="3313" fill="#00ba9c"></path></svg>